<svg width="32" height="31" viewBox="0 0 32 31" fill="none" xmlns="http://www.w3.org/2000/svg">
<path fill-rule="evenodd" clip-rule="evenodd" d="M24.6544 0.737185C24.8345 0.805237 25.5474 1.5113 27.9078 3.95953C29.5703 5.68386 30.9676 7.16776 31.0129 7.25706C31.1516 7.5305 31.1696 7.92324 31.0563 8.20356C30.9277 8.52182 30.7868 8.64893 29.2217 9.85893C27.59 11.1204 26.4091 12.0763 24.8269 13.416C23.5755 14.4757 21.3694 16.4234 21.3982 16.443C21.4066 16.4487 21.7179 16.4386 22.09 16.4207C22.8677 16.3832 23.4052 16.3133 24.0483 16.166C24.6694 16.0238 24.8295 16.0342 24.9749 16.2263C25.0403 16.3128 25.093 16.431 25.0919 16.4889C25.0908 16.5467 24.8829 16.886 24.6299 17.2427C24.3769 17.5994 24.1921 17.9123 24.2192 17.938C24.2463 17.9637 24.6432 18.1165 25.1012 18.2775C26.0111 18.5974 26.2076 18.7413 26.133 19.0329C26.0724 19.2695 25.9103 19.3572 25.198 19.5389C23.9504 19.8571 23.256 19.935 21.6632 19.9351L20.2136 19.9353L20.3446 20.4462C20.651 21.6408 20.8432 23.1019 20.825 24.0996C20.8159 24.602 20.8031 24.6578 20.6678 24.7879C20.3693 25.0751 20.1852 24.9542 19.5897 24.0797C19.322 23.6866 19.0746 23.34 19.0399 23.3094C18.9975 23.2719 18.8063 23.4619 18.4555 23.8903C17.9689 24.4846 17.9205 24.5267 17.7276 24.523C17.3717 24.5162 17.3187 24.4022 17.2564 23.51C17.2043 22.7627 17.0294 21.6787 16.8676 21.0993L16.7947 20.8386L15.6825 21.9886C13.5876 24.1549 11.7293 26.222 9.7334 28.6064C9.16012 29.2912 8.60686 29.9391 8.50385 30.0463C8.28462 30.2744 7.91508 30.4514 7.66514 30.448C7.13873 30.4408 7.19683 30.4927 3.97152 27.1526C2.2947 25.4161 0.885729 23.9223 0.840581 23.833C0.634063 23.4249 0.700625 22.8937 1.0013 22.5501C1.08586 22.4534 1.84365 21.8412 2.68525 21.1897C6.26277 18.4199 9.46991 15.6435 12.8711 12.3715C16.2637 9.1079 19.1281 6.04792 22.0727 2.5416C22.7548 1.72944 23.377 1.00787 23.4555 0.938114C23.7802 0.64943 24.2249 0.57492 24.6544 0.737185ZM23.3394 4.69876C21.3494 7.04529 19.0936 9.50746 16.9226 11.7027L15.7877 12.8502L17.1913 14.3089C18.3764 15.5404 18.6094 15.7569 18.6876 15.699C18.7385 15.6613 19.279 15.175 19.8886 14.6183C22.0978 12.6011 24.6805 10.4161 27.0539 8.5564C27.6538 8.08634 28.1448 7.6857 28.1452 7.66611C28.1461 7.619 24.319 3.6437 24.272 3.6428C24.252 3.64242 23.8323 4.11757 23.3394 4.69876ZM11.965 16.4717C9.7558 18.489 7.17313 20.6739 4.79977 22.5337C4.19988 23.0037 3.7088 23.4044 3.70842 23.4239C3.70752 23.4711 7.53459 27.4463 7.58167 27.4472C7.60167 27.4476 8.0213 26.9725 8.51419 26.3913C10.4966 24.0537 12.7448 21.5988 14.902 19.4158L16.065 18.2389L14.6619 16.7807C13.4771 15.5496 13.2442 15.3332 13.1661 15.3911C13.1151 15.4288 12.5747 15.9151 11.965 16.4717Z" fill="#FCC211"/>
</svg>
