<svg width="375" height="26" viewBox="0 0 375 26" fill="none" xmlns="http://www.w3.org/2000/svg">
<path opacity="0.5" d="M14.3532 14.4774L-24.1727 12.8833L-22.5895 0.509765L437.61 0.509701L434.971 19.5634L422.297 17.7415L418.469 16.0715L411.604 17.7415L398.27 17.7415L395.762 16.9824L380.316 17.7415L376.751 25.1808L371.734 19.5634L361.701 16.0715L354.044 19.5634L340.05 17.7415C336.618 17.4885 331.758 16.8002 329.223 16.0715C326.055 15.1605 319.718 16.9824 317.473 16.9824C315.678 16.9824 310.825 14.9834 308.889 15.2364L298.196 17.7415C298.196 17.7415 284.677 13.8701 283.41 13.8701C282.142 13.8701 268.492 19.5634 268.492 19.5634L256.61 13.8701L245.256 13.8701L233.771 15.2365L228.622 21.1575L221.097 15.2365L213.308 17.7415L205.783 16.0715L198.786 17.7415L195.222 14.4774L192.444 16.0715L186.9 15.2365L169.473 16.0715L163.004 16.9824L155.875 14.4774L150.595 21.1575L139.637 14.4774L129.736 11.1033L125.109 16.0715L116.131 13.8701L109.431 15.2365L103.207 14.4774L96.1641 18.7623L86.9684 12.8832L72.8424 14.4774L65.7135 12.8832L57.0003 19.5634L40.081 16.0715L32.2967 19.5634L27.1511 16.0715L20.6862 17.7415L20.6862 21.1575L20.6862 25.1808L16.5961 20.5133L14.3532 14.4774Z" fill="#05071A"/>
</svg>
