<svg width="375" height="31" viewBox="0 0 375 31" fill="none" xmlns="http://www.w3.org/2000/svg">
<path opacity="0.5" d="M418.112 17.6155L456.638 15.6363L455.055 0.273682H-5.14432L-2.50555 23.9302L10.1681 21.6682L13.9967 19.5947L20.8616 21.6682H34.1954L36.7038 20.7257L52.1499 21.6682L55.7144 30.9046L60.731 23.9302L70.7644 19.5947L78.4214 23.9302L92.4154 21.6682C95.8479 21.354 100.708 20.4995 103.242 19.5947C106.411 18.4637 112.748 20.7257 114.992 20.7257C116.788 20.7257 121.64 18.2438 123.576 18.558L134.27 21.6682C134.27 21.6682 147.789 16.8615 149.056 16.8615C150.323 16.8615 163.974 23.9302 163.974 23.9302L175.856 16.8615H187.209L198.695 18.558L203.843 25.9094L211.368 18.558L219.157 21.6682L226.682 19.5947L233.679 21.6682L237.244 17.6155L240.021 19.5947L245.566 18.558L262.992 19.5947L269.461 20.7257L276.59 17.6155L281.871 25.9094L292.828 17.6155L302.73 13.4264L307.356 19.5947L316.335 16.8615L323.035 18.558L329.259 17.6155L336.301 22.9356L345.497 15.6363L359.623 17.6155L366.752 15.6363L375.465 23.9302L392.384 19.5947L400.169 23.9302L405.314 19.5947L411.779 21.6682V25.9094V30.9046L415.869 25.1096L418.112 17.6155Z" fill="#131829"/>
</svg>
