<svg width="375" height="62" viewBox="0 0 375 62" fill="none" xmlns="http://www.w3.org/2000/svg">
<path d="M405.716 34.7445L444.846 30.7784L443.238 -0.0065918H-24.1729L-21.4927 47.3985L-8.62042 42.8657L-4.73187 38.7107L2.2406 42.8657H15.7834L18.331 40.9771L34.0192 42.8657L37.6395 61.3745L42.7348 47.3985L52.9254 38.7107L60.7025 47.3985L74.9156 42.8657C78.4019 42.2362 83.3379 40.5238 85.9124 38.7107C89.1305 36.4443 95.5667 40.9771 97.8461 40.9771C99.6697 40.9771 104.598 36.0036 106.565 36.6332L117.426 42.8657C117.426 42.8657 131.156 33.2336 132.444 33.2336C133.731 33.2336 147.596 47.3985 147.596 47.3985L159.663 33.2336H171.195L182.86 36.6332L188.09 51.3646L195.733 36.6332L203.644 42.8657L211.287 38.7107L218.393 42.8657L222.014 34.7445L224.834 38.7107L230.466 36.6332L248.166 38.7107L254.736 40.9771L261.976 34.7445L267.34 51.3646L278.469 34.7445L288.526 30.7784L315.471 34.7445L331.963 30.7784L346.311 34.7445L353.551 30.7784L362.401 47.3985L379.585 38.7107L387.492 47.3985L392.718 38.7107L399.284 42.8657V51.3646V61.3745L403.438 49.7618L405.716 34.7445Z" fill="#131829"/>
</svg>
