<svg width="375" height="51" viewBox="0 0 375 51" fill="none" xmlns="http://www.w3.org/2000/svg">
<path d="M26.7489 28.7484L-12.3807 25.5539L-10.7727 0.758789L456.638 0.758723L453.958 38.9402L441.086 35.2894L437.197 31.9428L430.225 35.2894L416.682 35.2894L414.134 33.7682L398.446 35.2894L394.826 50.1969L389.73 38.9402L379.54 31.9428L371.763 38.9402L357.55 35.2894C354.063 34.7823 349.127 33.4031 346.553 31.9428C343.335 30.1174 336.899 33.7682 334.619 33.7682C332.796 33.7682 327.867 29.7625 325.9 30.2695L315.039 35.2894C315.039 35.2894 301.309 27.5314 300.021 27.5314C298.734 27.5314 284.87 38.9402 284.87 38.9402L272.802 27.5314L261.27 27.5314L249.605 30.2695L244.375 42.1347L236.733 30.2695L228.821 35.2894L221.178 31.9428L214.072 35.2894L210.451 28.7484L207.631 31.9428L201.999 30.2695L184.3 31.9428L177.729 33.7682L170.489 28.7484L165.125 42.1347L153.996 28.7484L143.94 25.5539L116.995 28.7484L100.502 25.5539L86.1547 28.7484L78.914 25.5539L70.0643 38.9402L52.8799 31.9428L44.9736 38.9402L39.7474 31.9429L33.1811 35.2894L33.1811 42.1347L33.1811 50.1969L29.027 40.8438L26.7489 28.7484Z" fill="#05071A"/>
</svg>
