<svg width="29" height="28" viewBox="0 0 29 28" fill="none" xmlns="http://www.w3.org/2000/svg">
<path d="M8.06964 20.1593C7.84302 19.6871 7.65236 19.1967 7.4975 18.6949L3.02122 23.1712L1.80811 27.339L5.97585 26.1258L9.60173 22.4999C8.99206 21.7899 8.4734 21.0007 8.06964 20.1593Z" fill="#FFF5D6"/>
<path d="M27.8725 1.27456C27.3878 0.789859 26.7433 0.522903 26.0578 0.522903C25.3723 0.522903 24.7278 0.789859 24.2431 1.27456C23.8479 1.66978 23.5966 2.18044 23.5186 2.72538L26.4221 5.62896C26.967 5.55029 27.4788 5.29761 27.8725 4.90391C28.8731 3.90324 28.8731 2.27512 27.8725 1.27456Z" fill="#FFF5D6"/>
<path d="M21.2586 2.80832L20.1116 3.95536L21.1742 5.01804L19.7379 6.45437H22.5526V9.54894L24.1289 7.97267L25.1916 9.03541L26.3386 7.88837L21.2586 2.80832Z" fill="#FFF5D6"/>
<path d="M21.4954 20.1562C21.092 20.9942 20.5748 21.7801 19.967 22.4874L23.6055 26.1258L27.7732 27.3389L26.5601 23.1712L22.0721 18.6832C21.9162 19.1881 21.724 19.6813 21.4954 20.1562Z" fill="#FFF5D6"/>
<path d="M7.01784 6.45437H9.84323L8.4069 5.01804L9.46959 3.95536L8.32255 2.80832L3.24255 7.88837L4.38959 9.03541L5.45228 7.97272L7.01784 9.53823V6.45437Z" fill="#FFF5D6"/>
<path d="M6.06134 2.71662C5.9818 2.17492 5.73117 1.66761 5.33812 1.2745C4.85336 0.789798 4.20887 0.522842 3.52339 0.522842C2.83786 0.522842 2.19337 0.789798 1.70867 1.2745C0.708113 2.27511 0.708113 3.90324 1.70867 4.90385C2.10032 5.29549 2.60876 5.54747 3.1504 5.62755L6.06134 2.71662Z" fill="#FFF5D6"/>
<path d="M20.9305 8.07655H8.64001V15.5365C8.64001 18.3004 9.8766 20.8773 12.0327 22.6065L14.7693 24.8012L17.5207 22.6055C19.6877 20.8762 20.9306 18.2944 20.9306 15.5218V8.07655H20.9305ZM16.2723 21.0411L14.7724 22.238L13.2849 21.0451C11.605 19.6977 10.6414 17.69 10.6414 15.5365V10.078H18.9291V15.5218C18.9291 17.682 17.9607 19.6937 16.2723 21.0411Z" fill="#FFF5D6"/>
<path d="M12.2635 15.5365C12.2635 17.1953 13.0057 18.7418 14.2997 19.7797L14.7748 20.1607L15.2603 19.7732C16.5608 18.7353 17.3068 17.1858 17.3068 15.5218V11.7002H12.2634V15.5365H12.2635Z" fill="#FFF5D6"/>
</svg>
