<svg width="24" height="28" viewBox="0 0 24 28" fill="none" xmlns="http://www.w3.org/2000/svg">
<path d="M19.8729 18.9709C19.8828 18.92 19.8906 7.90775 19.8906 7.90775C19.8906 7.47278 19.8545 7.04616 19.7862 6.63023L22.4851 2.21729C22.6555 1.93869 22.6438 1.58543 22.4555 1.31861C22.2672 1.05174 21.938 0.922639 21.6186 0.989889L17.1315 1.93465C15.7585 0.761252 13.9779 0.0515594 12.0344 0.0515594C10.0909 0.0515594 8.31031 0.761252 6.93729 1.93465L2.45022 0.989889C2.13056 0.922258 1.80162 1.05179 1.61334 1.31861C1.42496 1.58543 1.41334 1.93864 1.58378 2.21729L4.28265 6.63023C4.21437 7.04616 4.1782 7.47278 4.1782 7.90775C4.1782 7.90775 4.18377 18.9204 4.19375 18.9715C2.30269 19.4889 0.907959 21.2271 0.907959 23.287L0.907959 27.1586C0.907959 27.6104 1.27426 27.9767 1.72608 27.9767C2.1779 27.9767 2.5442 27.6104 2.5442 27.1586L2.5442 24.0051C2.69839 23.9988 2.85301 23.9952 3.0066 23.9952C6.18014 23.9952 9.21995 25.3462 11.3465 27.7019C11.4492 27.8157 11.5832 27.8993 11.7307 27.941C12.0689 28.0365 12.4809 27.9692 12.7222 27.7019C14.8488 25.3463 17.8886 23.9952 21.0622 23.9952C21.2158 23.9952 21.3704 23.9988 21.5246 24.0051L21.5246 27.1586C21.5246 27.6104 21.8909 27.9767 22.3427 27.9767C22.7945 27.9767 23.1608 27.6104 23.1608 27.1586L23.1608 23.287C23.1608 21.2263 21.765 19.4876 19.8729 18.9709ZM18.2521 18.8138L14.4888 18.8138L14.4888 17.9844C15.9952 17.4877 17.3016 16.5469 18.2521 15.3175L18.2521 18.8138ZM5.81445 7.90775C5.81445 7.82774 5.81646 7.74827 5.81946 7.66897C6.62651 7.89826 7.46116 8.01454 8.31238 8.01454C10.4168 8.01454 12.4328 7.29547 14.065 5.97601C15.2869 6.96637 16.7146 7.61372 18.2536 7.87852C18.2533 7.88828 18.2521 7.89788 18.2521 7.90775L18.2521 10.6882C18.1633 14.041 15.4083 16.7412 12.0344 16.7412C8.60473 16.7412 5.81445 13.9509 5.81445 10.5212L5.81445 7.90775ZM11.2163 18.335C11.4853 18.3629 11.7581 18.3775 12.0344 18.3775C12.3106 18.3775 12.5835 18.3629 12.8525 18.335L12.8525 20.2161C12.8525 20.6672 12.4855 21.0343 12.0344 21.0343C11.5833 21.0343 11.2163 20.6673 11.2163 20.2161L11.2163 18.335ZM9.58003 17.9844L9.58003 18.8138L5.81445 18.8138L5.81445 15.3145C6.76516 16.5454 8.07235 17.4873 9.58003 17.9844Z" fill="#FFF5D6"/>
</svg>
