<svg width="25" height="23" viewBox="0 0 25 23" fill="none" xmlns="http://www.w3.org/2000/svg">
<path fill-rule="evenodd" clip-rule="evenodd" d="M22.4404 16.4065H14.6767C14.4179 16.4065 14.2081 16.2065 14.2081 15.9599C14.2081 15.7132 14.4179 15.5133 14.6767 15.5133H19.2476V4.06271C19.2451 2.19268 17.6838 0.677293 15.7571 0.674835H3.91806C1.98776 0.675953 0.4239 2.19569 0.425049 4.06925C0.426202 5.94275 1.99196 7.46064 3.9222 7.45953C4.89653 7.45897 5.82642 7.06364 6.4875 6.36897V19.4199C6.4875 21.2917 8.04952 22.8098 9.97797 22.8122H20.9651C22.8942 22.7442 24.4012 21.1713 24.3311 19.299C24.2839 18.0371 23.5295 16.9524 22.4404 16.4065ZM3.91806 6.56116C2.49643 6.56362 1.34188 5.44703 1.33934 4.06718C1.33681 2.68734 2.48722 1.56672 3.90885 1.56426C5.33048 1.56181 6.48503 2.6784 6.48756 4.05824V4.06271C6.48756 5.44082 5.33784 6.5587 3.91806 6.56116ZM9.98264 21.896C8.56101 21.8985 7.40646 20.7819 7.40392 19.402C7.40139 18.0222 8.5518 16.9016 9.97343 16.8991C11.3951 16.8966 12.5496 18.0132 12.5521 19.3931V19.3975C12.5521 20.7757 11.4024 21.8935 9.98264 21.896ZM14.8177 3.61577H10.4753C10.221 3.61577 10.0148 3.81589 10.0148 4.06272C10.0148 4.30955 10.221 4.50967 10.4753 4.50967H14.8177C15.072 4.50967 15.2782 4.30955 15.2782 4.06272C15.2782 3.81589 15.072 3.61577 14.8177 3.61577ZM8.56434 5.92203H16.9912C17.2455 5.92203 17.4517 6.12215 17.4517 6.36898C17.4517 6.6158 17.2455 6.81593 16.9912 6.81593H8.56434C8.31004 6.81593 8.10385 6.6158 8.10385 6.36898C8.10385 6.12215 8.31004 5.92203 8.56434 5.92203ZM16.9912 8.34448H8.56434C8.31004 8.34448 8.10385 8.5446 8.10385 8.79143C8.10385 9.03826 8.31004 9.23838 8.56434 9.23838H16.9912C17.2455 9.23838 17.4517 9.03826 17.4517 8.79143C17.4517 8.5446 17.2455 8.34448 16.9912 8.34448ZM8.56434 10.7848H16.9912C17.2455 10.7848 17.4517 10.985 17.4517 11.2318C17.4517 11.4786 17.2455 11.6787 16.9912 11.6787H8.56434C8.31004 11.6787 8.10385 11.4786 8.10385 11.2318C8.10385 10.985 8.31004 10.7848 8.56434 10.7848ZM16.9912 13.2252H8.56434C8.31004 13.2252 8.10385 13.4253 8.10385 13.6721C8.10385 13.919 8.31004 14.1191 8.56434 14.1191H16.9912C17.2455 14.1191 17.4517 13.919 17.4517 13.6721C17.4517 13.4253 17.2455 13.2252 16.9912 13.2252Z" fill="#FFF5D6"/>
</svg>
